 http://img97.imageshack.us/img97/4672/larrycrowneh.jpg


Verenigde Staten
Komedie / Drama
99 minuten

geregisseerd door Tom Hanks
met Tom Hanks, Julia Roberts en Pam Grier

Wanneer de sympathieke Larry Crowne zonder reden ontslagen wordt in de supermarkt waar hij werkt, beslist hij dat het tijd is om zijn leven een nieuwe wending te geven. Diep in de schulden en zonder duidelijk doel voor ogen, keert hij terug naar de schoolbanken, waar hij al snel vriendschap sluit met een kleurrijk groepje buitenstaanders. Allemaal zijn ze op zoek naar een betere toekomst... en snorren ze door de stad op lawaaierige scooters. En Larry wordt verliefd, op de mooie professor Mercedes, die haar passie voor het lesgeven en haar huwelijk kwijtgespeeld lijkt...


Vertaald door Simply Release Toppers:
Heksje
Controle+Bewerking: Badgast






Screenshots:
 
http://img853.imageshack.us/img853/6320/screenshot1r.jpg
 
http://img830.imageshack.us/img830/87/screenshot2we.jpg
 
http://img692.imageshack.us/img692/6058/screenshot3rs.jpg
 
http://img84.imageshack.us/img84/1558/screenshot4bb.jpg




INFO;


Video
ID                                       : 0
Format                                   : MPEG-4 Visual
Format profile                           : Advanced Simple@L5
Format settings, BVOP                    : 1
Format settings, QPel                    : No
Format settings, GMC                     : No warppoints
Format settings, Matrix                  : Custom
Codec ID                                 : XVID
Codec ID/Hint                            : XviD
Duration                                 : 1h 38mn
Bit rate                                 : 867 Kbps
Width                                    : 640 pixels
Height                                   : 272 pixels
Display aspect ratio                     : 2.35:1
Frame rate                               : 23.976 fps
Color space                              : YUV
Chroma subsampling                       : 4:2:0
Bit depth                                : 8 bits
Scan type                                : Progressive
Compression mode                         : Lossy
Bits/(Pixel*Frame)                       : 0.208
Stream size                              : 611 MiB (87%)
Writing library                          : XviD 64

Audio
ID                                       : 1
Format                                   : MPEG Audio
Format version                           : Version 1
Format profile                           : Layer 3
Mode                                     : Joint stereo
Mode extension                           : MS Stereo
Codec ID                                 : 55
Codec ID/Hint                            : MP3
Duration                                 : 1h 38mn
Bit rate mode                            : Variable
Bit rate                                 : 113 Kbps
Nominal bit rate                         : 128 Kbps
Channel(s)                               : 2 channels
Sampling rate                            : 48.0 KHz
Compression mode                         : Lossy
Stream size                              : 79.9 MiB (11%)
Alignment                                : Aligned on interleaves
Interleave, duration                     : 24 ms (0.58 video frame)
Interleave, preload duration             : 162 ms





Deze film wordt u aangeboden door het DutchReleaseTeam.
Voor de reviews van de nieuwste films, muziek, series, games etc
ga dan eens naar http://www.hetmultimediacafe.be

DutchReleaseteam = Hardcoded Dutch Subs